{"title":"Alex Cross 2012 CAM XViD UNiQUE","uid":7752766,"size":1504544662,"categoryP":"video","categoryS":"movies","magnet":"?xt=urn:btih:a605f7921e520427d4b8889a3c02b5d8928fba25&amp;dn=Alex+Cross+2012+CAM+XViD+UNiQUE&amp;tr=udp%3A%2F%2Ftracker.openbittorrent.com%3A80&amp;tr=udp%3A%2F%2Fopen.demonii.com%3A1337&amp;tr=udp%3A%2F%2Ftracker.coppersurfer.tk%3A6969&amp;tr=udp%3A%2F%2Fexodus.desync.com%3A6969","seeders":1,"leechers":0,"uploader":".BONE.","files":3,"time":1351008369,"description":"Plot: A homicide detective is pushed to the brink of his moral and physical limits as he tangles with a ferociously skilled serial killer who specializes in torture and pain.\n\n\n\nDirector:\nRob Cohen\n\nWriters:\nMarc Moss (screenplay), Kerry Williamson (screenplay)\n\nStars:\nTyler Perry, Matthew Fox and Rachel Nichols\n\nGenres:\nAction | Crime | Mystery | Thriller \n\n\n\n\nFormat : AVI\nFormat/Info : Audio Video Interleave\nFile size : 1.39 GiB\nDuration : 1h 33mn\nOverall bit rate : 2 118 Kbps\nWriting application : VirtualDubMod 1.5.10.2 (build 2540/release)\nWriting library : VirtualDubMod build 2540/release\n\nVideo\nID : 0\nFormat : MPEG-4 Visual\nFormat profile : Advanced Simple@L5\nFormat settings, BVOP : 2\nFormat settings, QPel : No\nFormat settings, GMC : No warppoints\nFormat settings, Matrix : Default (H.263)\nMuxing mode : Packed bitstream\nCodec ID : XVID\nCodec ID/Hint : XviD\nDuration : 1h 33mn\nBit rate : 1 978 Kbps\nWidth : 624 pixels\nHeight : 332 pixels\nDisplay aspect ratio : 1.880\nFrame rate : 29.970 fps\nColor space : YUV\nChroma subsampling : 4:2:0\nBit depth : 8 bits\nScan type : Progressive\nCompression mode : Lossy\nBits/(Pixel*Frame) : 0.319\nStream size : 1.29 GiB (93%)\nWriting library : XviD 64\n\nAudio\nID : 1\nFormat : MPEG Audio\nFormat version : Version 1\nFormat profile : Layer 3\nCodec ID : 55\nCodec ID/Hint : MP3\nDuration : 1h 33mn\nBit rate mode : Constant\nBit rate : 128 Kbps\nChannel(s) : 2 channels\nSampling rate : 48.0 KHz\nCompression mode : Lossy\nStream size : 85.8 MiB (6%)\nAlignment : Split accross interleaves\nInterleave, duration : 33 ms (1.00 video frame)\nInterleave, preload duration : 500 ms\n\n\n\n\n &lt;a href=&quot;\nhttp://www.imdb.com/title/tt1712170/&quot; rel=&quot;nofollow&quot; target=&quot;_NEW&quot;&gt;\nhttp://www.imdb.com/title/tt1712170/&lt;/a&gt;\n\n\n\n\n\nRatings: 4.9/10 from 1,438 users Metascore: 33/100\nReviews: 15 user | 29 critic | 28 from Metacritic.com\n\nA homicide detective is pushed to the brink of his moral and physical limits as he tangles with a ferociously skilled serial killer who specializes in torture and pain.\n\nDirector:\nRob Cohen\nWriters:\nMarc Moss (screenplay), Kerry Williamson (screenplay), and 1 more credit Â»\nStars:\nTyler Perry, Matthew Fox and Rachel Nichols | See full cast and crew\n\n\n\n\n\n\nSource Used\n\n\n\n\nHP...........Thanks\n\n\n\nSource has its issues but its more than watchable but check out that all important sample 1st begfore downloading\n\n\n\n\n\nEnjoy\n\n\nGreets\n\n\nINSPiRAL,LEGION,iLLUSiON,DiLLON,THORN,DQ1,26K,ETRG/SeeN/CM8 .......and thats about it","torrent":{"xt":"urn:btih:a605f7921e520427d4b8889a3c02b5d8928fba25","amp;dn":"Alex+Cross+2012+CAM+XViD+UNiQUE","amp;tr":["udp%3A%2F%2Ftracker.openbittorrent.com%3A80","udp%3A%2F%2Fopen.demonii.com%3A1337","udp%3A%2F%2Ftracker.coppersurfer.tk%3A6969","udp%3A%2F%2Fexodus.desync.com%3A6969"],"infoHash":"a605f7921e520427d4b8889a3c02b5d8928fba25","infoHashBuffer":{"type":"Buffer","data":[166,5,247,146,30,82,4,39,212,184,136,154,60,2,181,216,146,143,186,37]},"announce":[],"urlList":[]}}